Coordinates
version=1
nRows=17
nColumns=36
inDegrees=yes

Units are S.I. units (second, meters, Newtons, ...)
If the header above contains a line with 'inDegrees', this indicates whether rotational values are in degrees (yes) or radians (no).

endheader
time	pelvis_tilt	pelvis_list	pelvis_rotation	pelvis_tx	pelvis_ty	pelvis_tz	hip_flexion_r	hip_adduction_r	hip_rotation_r	knee_angle_r	knee_angle_r_beta	ankle_angle_r	subtalar_angle_r	mtp_angle_r	hip_flexion_l	hip_adduction_l	hip_rotation_l	knee_angle_l	knee_angle_l_beta	ankle_angle_l	subtalar_angle_l	mtp_angle_l	lumbar_extension	lumbar_bending	lumbar_rotation	arm_flex_r	arm_add_r	arm_rot_r	elbow_flex_r	pro_sup_r	arm_flex_l	arm_add_l	arm_rot_l	elbow_flex_l	pro_sup_l
      0.95000000	    -19.50817745	     15.39726750	     16.62613560	      0.19250896	      0.68791085	     -0.12412383	    100.23257171	    -21.00463067	     21.66895384	     45.60505225	      0.79595832	    -12.89016131	     -1.90014966	     -7.49891520	     83.08442730	     15.97974823	    -21.72190310	     91.64469275	      1.59950163	     27.99449285	     -7.36556249	     -7.49891520	    -44.35164619	    -10.80226732	    -23.11843737	    104.35527690	     -9.80397882	     60.50310514	    117.37990292	     46.55472477	    120.28190968	    -30.80382862	     86.35315922	    104.68367710	     46.97717379
      0.96666670	    -19.25400099	     15.58232205	     16.35304777	      0.19756087	      0.68437948	     -0.11841928	    100.16134451	    -20.72794539	     21.82662828	     46.04949379	      0.80371529	    -12.93100135	     -1.77827974	     -7.49891881	     83.00089020	     15.89880233	    -21.80039936	     91.89504473	      1.60387110	     28.06837147	     -7.38287856	     -7.49891881	    -44.43095001	    -11.20920622	    -22.30785285	    103.99543055	     -8.78615380	     60.94365691	    118.06812588	     46.61530002	    119.58591665	    -30.67918779	     86.75882523	    105.21721280	     47.03238174
      0.98333330	    -19.95340638	     15.41894347	     15.99304058	      0.19874318	      0.68369832	     -0.11732975	    100.85284146	    -19.98123265	     22.00460923	     46.36837605	      0.80928083	    -12.63099145	     -1.60858837	     -7.49901973	     83.83848871	     15.29836136	    -21.85406510	     92.26840643	      1.61038749	     28.78000375	     -6.71994520	     -7.49901973	    -43.66006989	    -11.46007033	    -21.48006494	    103.52131372	     -9.08749020	     61.26670837	    119.16512328	     47.62533675	    118.14873002	    -31.54545170	     86.66101109	    106.72233510	     48.06224797
      1.00000000	    -20.39889567	     15.14002066	     15.75368048	      0.19788527	      0.68264497	     -0.11784821	    101.26910024	    -19.55629388	     21.78062255	     46.65895589	      0.81435241	    -12.46832445	     -1.52115596	     -7.49910082	     84.43661204	     14.91614843	    -21.68555044	     92.58276863	      1.61587414	     29.27769429	     -6.31905211	     -7.49910082	    -43.08702819	    -11.22485447	    -20.97152228	    103.11854550	     -8.76369550	     61.35414548	    119.59919404	     48.32828476	    117.49130961	    -32.36684016	     86.91091023	    108.82889988	     48.73710319
      1.01666670	    -20.76687597	     15.13735912	     15.62706738	      0.19877632	      0.68267634	     -0.11694182	    101.63313847	    -19.24561884	     21.78731196	     46.88726708	      0.81833719	    -12.41308154	     -1.37892359	     -7.49921435	     84.80357518	     14.69408005	    -21.79292499	     92.69268693	      1.61779258	     29.65925810	     -5.91884619	     -7.49921435	    -42.66218356	    -11.19435574	    -21.32787991	    102.44668217	     -7.83132368	     61.19010109	    119.38039724	     48.73356008	    117.32713659	    -33.80357706	     87.52943329	    111.41416721	     48.87454862
      1.03333330	    -20.96239585	     15.11532725	     15.50032486	      0.19121236	      0.68097423	     -0.12382422	    101.87494093	    -19.09790867	     21.59994581	     47.12126790	      0.82242127	    -12.38786636	     -1.23662498	     -7.49921825	     85.06419324	     14.56969472	    -21.85521008	     92.69938122	      1.61790942	     29.73399105	     -5.82102884	     -7.49921825	    -42.42659137	    -10.94018443	    -21.35393527	    102.71758422	     -8.18273922	     60.79108919	    119.07088121	     48.69577000	    117.67041998	    -33.37962934	     87.28335715	    111.72070850	     48.83524053
      1.05000000	    -20.84780300	     15.14425998	     15.38932860	      0.19913022	      0.68597988	     -0.11725653	    101.67995292	    -19.07654115	     21.42965824	     47.18368120	      0.82351059	    -12.36057167	     -1.01047185	     -7.49922117	     84.84095337	     14.62286472	    -21.82989783	     92.55008123	      1.61530364	     29.83945762	     -5.70091892	     -7.49922117	    -42.51105672	    -11.07508121	    -20.87871442	    102.20049045	     -7.94748066	     60.97164918	    119.22794276	     48.69016387	    117.02870359	    -33.53302907	     87.83857611	    112.18715340	     48.83868311
      1.06666670	    -21.00746578	     14.90077740	     15.26478807	      0.19849149	      0.68543525	     -0.11799501	    101.66439757	    -18.97722028	     21.06139967	     47.11971643	      0.82239419	    -12.06001157	     -0.40707786	     -7.49927544	     84.92956479	     14.46918438	    -21.60257782	     92.56280659	      1.61552574	     30.32810626	     -5.13880497	     -7.49927544	    -42.09058021	    -11.06714081	    -20.62505710	    101.87835202	     -7.72878975	     60.88866611	    119.66530084	     49.17679256	    116.36683941	    -33.75272334	     87.46170903	    113.58663331	     49.13801047
      1.08333330	    -20.87772156	     14.80190632	     15.14719546	      0.19913812	      0.68623920	     -0.11746466	    101.33827314	    -18.96337111	     20.73540532	     46.93968835	      0.81925211	    -12.06381185	     -0.17069522	     -7.49932974	     84.60940680	     14.45590845	    -21.39047699	     92.41571402	      1.61295849	     30.56363744	     -4.84949565	     -7.49932974	    -41.87392099	    -11.16226564	    -20.50355835	    101.75958632	     -7.57538672	     60.80848780	    118.85403778	     49.69014219	    116.02867892	    -33.91322063	     87.07951265	    113.29198730	     49.54268613
      1.10000000	    -20.66306913	     14.68103337	     15.06037352	      0.19840622	      0.69382611	     -0.11833306	    100.78055205	    -19.05816986	     20.29115179	     46.51962755	      0.81192067	    -11.96107244	      0.18494287	     -7.49942524	     84.08503924	     14.51325705	    -21.13433356	     92.12042672	      1.60780475	     30.82641325	     -4.56753517	     -7.49942524	    -41.92051874	    -11.10607959	    -20.45251914	    101.92608083	     -6.29600758	     62.58078353	    118.62868270	     50.19031928	    114.98343409	    -34.30158719	     86.80740195	    114.17766764	     49.55278981
      1.11666670	    -20.59852955	     14.65647089	     15.10317496	      0.19923701	      0.69463444	     -0.11758319	    100.38247405	    -19.20691219	     20.02021550	     46.08797814	      0.80438696	    -11.95070535	      0.39279122	     -7.49947082	     83.63707783	     14.65793437	    -20.98699083	     91.72901057	      1.60097325	     30.94945450	     -4.30159994	     -7.49947082	    -41.80584528	    -11.31291781	    -20.43361759	    101.97388039	     -6.25780465	     62.00746026	    118.92262914	     50.73045397	    114.23069247	    -34.14377388	     85.97259435	    114.72060887	     49.86866973
      1.13333330	    -20.52677821	     14.66603880	     15.17473729	      0.19845318	      0.69467037	     -0.11823866	    100.05658392	    -19.34079792	     19.80512152	     45.83001792	      0.79988471	    -11.97380739	      0.52253785	     -7.49951815	     83.24541094	     14.70372422	    -20.97175955	     91.39240033	      1.59509830	     30.95322541	     -4.19771804	     -7.49951815	    -41.70502328	    -11.67939727	    -20.52672948	    102.54260628	     -5.45524967	     60.98155248	    120.24343703	     51.29320689	    113.97717328	    -34.07854201	     83.22087134	    116.18360722	     50.01681094
      1.15000000	    -20.30765904	     14.45167787	     15.17700418	      0.19971992	      0.70342983	     -0.11780701	     99.45294063	    -19.51500974	     19.27385131	     45.48367606	      0.79383990	    -11.86466015	      0.77312352	     -7.49960479	     82.76495992	     14.77623922	    -20.64228253	     91.09048354	      1.58982886	     30.89395542	     -4.35536719	     -7.49960479	    -41.59580185	    -11.29936874	    -20.46549822	    102.07701257	     -4.73867559	     60.61468831	    119.33791754	     52.31295997	    110.90061039	    -34.80924122	     80.13052107	    116.69000984	     50.19777225
      1.16666670	    -20.26791793	     14.40127281	     15.23955834	      0.19990485	      0.71038824	     -0.11946977	     98.99113500	    -19.77181600	     18.82425914	     45.02401312	      0.78581727	    -11.83004212	      1.09582647	     -7.49961688	     82.27936495	     14.99399384	    -20.45259432	     90.56231059	      1.58061050	     30.85916720	     -4.28087573	     -7.49961688	    -41.75330912	    -11.21567479	    -20.25202935	    101.49915555	     -4.97707106	     60.76671096	    121.12968606	     52.58838521	    108.64985430	    -35.00391276	     79.55368649	    118.81197379	     50.13065441
      1.18333330	    -20.22725916	     14.27673753	     15.32499431	      0.20167426	      0.72297953	     -0.11939053	     98.19966402	    -20.17328845	     18.15273725	     44.14884241	      0.77054266	    -11.67116664	      1.78203222	     -7.49969396	     81.55021349	     15.31549339	    -20.16886625	     89.68872547	      1.56536356	     30.82090706	     -4.26070478	     -7.49969396	    -41.82185782	    -10.85573417	    -19.99287065	    100.04619421	     -5.37885472	     62.03733928	    120.76116527	     53.68295776	    105.93759220	    -34.81050897	     79.14410970	    117.76318884	     51.41220330
      1.20000000	    -20.44519247	     14.29221213	     15.46648479	      0.20112047	      0.73148731	     -0.11954044	     97.49512694	    -20.60714516	     17.56020460	     43.02528122	      0.75093282	    -11.63780171	      2.19045943	     -7.49969552	     80.85068165	     15.74627112	    -19.98906362	     88.48025242	      1.54427173	     30.80976044	     -4.07303770	     -7.49969552	    -42.07694803	    -10.79375110	    -20.08481397	     99.25138133	     -5.53579038	     62.42051745	    120.73403813	     53.71542342	    105.22048293	    -34.93684011	     79.53955372	    117.64896572	     51.42211457
      1.21666670	    -20.25263234	     14.22513557	     15.37966755	      0.20265324	      0.73700408	     -0.11862785	     96.37941931	    -21.02985198	     16.56351973	     42.03380633	      0.73362832	    -11.28344474	      3.61885457	     -7.49972306	     79.75774271	     16.07417079	    -19.57494468	     87.29747953	      1.52362845	     30.63154561	     -4.17544498	     -7.49972306	    -41.98041713	    -10.77760752	    -19.99754274	     97.06753227	     -5.72222950	     61.42212821	    119.10081856	     54.19145190	    103.70531406	    -35.09173688	     78.66952514	    116.49153597	     51.96786335
